<svg xmlns="http://www.w3.org/2000/svg" viewBox="0 0 187 187" width="75" height="75">
  <rect fill="#009846" width="187" height="187" rx="18" ry="18"/>
  <path fill="#FEFEFE" d="M95 146c-11 0-22-3-31-9l-21 7 7-20c-6-9-10-20-10-32v-5c3-28 26-50 55-50s52 22 55 51v4c0 30-25 54-55 54zm65-56c-1-35-30-63-65-63S31 54 29 89v3c0 12 4 24 10 33l-12 35 36-11c9 5 20 8 32 8 36 0 65-29 65-65v-2z"/>
  <path fill="#FEFEFE" d="M125 105l-11-5c-1-1-2-1-3 1l-5 6c-1 1-2 1-3 0-2-1-7-2-13-8s-8-9-9-11c-1-1 0-2 0-3l3-3v-2c1-2 1-2 0-3l-5-12c-1-3-2-3-3-3h-3c-1 0-3 1-5 2-1 2-5 6-5 13 0 2 0 4 1 6 1 5 5 10 5 11 1 1 11 18 28 24 16 6 16 4 19 4 3 0 10-4 11-8 1-3 1-7 1-7-1-1-2-1-3-2z"/>
</svg>